<svg xmlns="http://www.w3.org/2000/svg" viewBox="0 0 256 259" fill="#ffffff">
  <path d="M127.8 0C57.7 0 0 51.4 0 117.5l68.6 28.3c5.8-4 12.8-6.3 20.3-6.3l.3-.1 30.4-44.1v-.6c0-25.7 20.9-46.6 46.6-46.6s46.6 20.9 46.6 46.6-20.9 46.6-46.6 46.6h-1.1l-43.4 31c0 .2 0 .3-.1.5 0 19.3-15.7 35-35 35-17.1 0-31.4-12.3-34.5-28.6L4.4 159.4C20 214.9 69.3 258.2 127.8 258.2c70.1 0 127-56.9 127-129.1S197.9 0 127.8 0zM80.4 209.4l-14.7-6.1c2.6 5.4 7 9.8 12.8 12.4 12.6 5.2 27.1-.9 32.3-13.5 2.5-6.1 2.5-12.8 0-18.9s-7.4-10.8-13.5-13.3c-6-2.5-12.5-2.3-18.2-.2l15.2 6.3c9.3 3.8 13.7 14.4 9.8 23.7-3.8 9.3-14.3 13.7-23.7 9.6zm118-92.7c0-17.1-13.9-31.1-31.1-31.1-17.1 0-31.1 13.9-31.1 31.1 0 17.1 13.9 31.1 31.1 31.1 17.2 0 31.1-13.9 31.1-31.1zm-54.4.1c0-12.9 10.5-23.4 23.4-23.4 12.9 0 23.4 10.5 23.4 23.4 0 12.9-10.5 23.4-23.4 23.4-12.9-.1-23.4-10.5-23.4-23.4z"/>
</svg>
